ffmpeg started on 2025-06-06 at 18:18:38
Report written to "D:\Convert\FFMetrics\reports\ssim_report-6.txt"
Log level: 32
Command line:
ffmpeg -hide_banner -nostdin -i "G:\\\xc0\xed\xe8\xec\xe5\\\xce\xed\xe3\xee\xe8\xed\xe3\xe8\\!_36_\xce\xf1\xe5\xed\xfc_2024\\DreamCast\\\xcf\xf0\xee\xf9\xe0\xe9, \xe6\xe8\xe7\xed\xfc \xe4\xf0\xe0\xea\xee\xed\xe0. \xc7\xe4\xf0\xe0\xe2\xf1\xf2\xe2\xf3\xe9, \xe6\xe8\xe7\xed\xfc \xf7\xe5\xeb\xee\xe2\xe5\xea\xe0\\[DC] Sayonara Ryuusei Konnichiwa Jinsei - 05_Telegram_HEVC.mkv" -i "G:\\\xc0\xed\xe8\xec\xe5\\\xce\xed\xe3\xee\xe8\xed\xe3\xe8\\!_36_\xce\xf1\xe5\xed\xfc_2024\\DreamCast\\\xcf\xf0\xee\xf9\xe0\xe9, \xe6\xe8\xe7\xed\xfc \xe4\xf0\xe0\xea\xee\xed\xe0. \xc7\xe4\xf0\xe0\xe2\xf1\xf2\xe2\xf3\xe9, \xe6\xe8\xe7\xed\xfc \xf7\xe5\xeb\xee\xe2\xe5\xea\xe0\\[DC] Sayonara Ryuusei Konnichiwa Jinsei - 05_Telegram.mp4" -lavfi "[0:v]settb=AVTB,setpts=PTS-STARTPTS,format=pix_fmts=yuv420p10,fps=24000/1001,scale=1920:1080:flags=bicubic[main];[1:v]settb=AVTB,setpts=PTS-STARTPTS,format=pix_fmts=yuv420p,fps=24000/1001,scale=1920:1080:flags=bicubic[ref];[main][ref]ssim=eof_action=endall:stats_file='D\\:/Convert/FFMetrics/logs/ssim_logfile-6.txt'" -f null -
Input #0, matroska,webm, from 'G:\Аниме\Онгоинги\!_36_Осень_2024\DreamCast\Прощай, жизнь дракона. Здравствуй, жизнь человека\[DC] Sayonara Ryuusei Konnichiwa Jinsei - 05_Telegram_HEVC.mkv':
  Metadata:
    COMPATIBLE_BRANDS: isomiso2avc1mp41
    MAJOR_BRAND     : isom
    MINOR_VERSION   : 512
    ENCODER         : Lavf61.7.100
  Duration: 00:24:16.85, start: -0.021000, bitrate: 1180 kb/s
  Stream #0:0: Video: hevc (Main 10), yuv420p10le(tv, bt709, progressive), 1920x1080 [SAR 1:1 DAR 16:9], 23.98 fps, 23.98 tbr, 1k tbn (default)
      Metadata:
        HANDLER_NAME    : VideoHandler
        VENDOR_ID       : [0][0][0][0]
        ENCODER         : Lavc61.19.100 libx265
        BPS             : 982675
        DURATION        : 00:24:16.579708333
        NUMBER_OF_FRAMES: 34923
        NUMBER_OF_BYTES : 178918152
        _STATISTICS_WRITING_APP: mkvpropedit v66.0.0 ('Josie') 64-bit
        _STATISTICS_WRITING_DATE_UTC: 2025-06-03 09:48:20
        _STATISTICS_TAGS: BPS DURATION NUMBER_OF_FRAMES NUMBER_OF_BYTES
  Stream #0:1: Audio: aac (LC), 48000 Hz, stereo, fltp (default)
      Metadata:
        HANDLER_NAME    : SoundHandler
        VENDOR_ID       : [0][0][0][0]
        ENCODER         : Lavc61.19.100 aac
        BPS             : 193497
        DURATION        : 00:24:16.853000000
        NUMBER_OF_FRAMES: 68291
        NUMBER_OF_BYTES : 35237111
        _STATISTICS_WRITING_APP: mkvpropedit v66.0.0 ('Josie') 64-bit
        _STATISTICS_WRITING_DATE_UTC: 2025-06-03 09:48:20
        _STATISTICS_TAGS: BPS DURATION NUMBER_OF_FRAMES NUMBER_OF_BYTES
Input #1, mov,mp4,m4a,3gp,3g2,mj2, from 'G:\Аниме\Онгоинги\!_36_Осень_2024\DreamCast\Прощай, жизнь дракона. Здравствуй, жизнь человека\[DC] Sayonara Ryuusei Konnichiwa Jinsei - 05_Telegram.mp4':
  Metadata:
    major_brand     : isom
    minor_version   : 512
    compatible_brands: isomiso2avc1mp41
    encoder         : Lavf61.1.100
  Duration: 00:24:16.83, start: 0.000000, bitrate: 3714 kb/s
  Stream #1:0[0x1](und): Video: h264 (High) (avc1 / 0x31637661), yuv420p(tv, bt709, progressive), 1920x1080 [SAR 1:1 DAR 16:9], 3566 kb/s, 23.98 fps, 23.98 tbr, 24k tbn (default)
      Metadata:
        handler_name    : VideoHandler
        vendor_id       : [0][0][0][0]
        encoder         : Lavc61.3.100 h264_qsv
  Stream #1:1[0x2](und): Audio: aac (HE-AACv2) (mp4a / 0x6134706D), 48000 Hz, stereo, fltp, 144 kb/s (default)
      Metadata:
        handler_name    : SoundHandler
        vendor_id       : [0][0][0][0]
Stream mapping:
  Stream #0:0 (hevc) -> settb:default
  Stream #1:0 (h264) -> settb:default
  ssim:default -> Stream #0:0 (wrapped_avframe)
  Stream #0:1 -> #0:1 (aac (native) -> pcm_s16le (native))
Output #0, null, to 'pipe:':
  Metadata:
    COMPATIBLE_BRANDS: isomiso2avc1mp41
    MAJOR_BRAND     : isom
    MINOR_VERSION   : 512
    encoder         : Lavf61.7.100
  Stream #0:0: Video: wrapped_avframe, yuv420p10le(tv, bt709, progressive), 1920x1080 [SAR 1:1 DAR 16:9], q=2-31, 200 kb/s, 23.98 fps, 23.98 tbn
      Metadata:
        encoder         : Lavc61.19.100 wrapped_avframe
  Stream #0:1: Audio: pcm_s16le, 48000 Hz, stereo, s16, 1536 kb/s (default)
      Metadata:
        HANDLER_NAME    : SoundHandler
        VENDOR_ID       : [0][0][0][0]
        _STATISTICS_TAGS: BPS DURATION NUMBER_OF_FRAMES NUMBER_OF_BYTES
        BPS             : 193497
        DURATION        : 00:24:16.853000000
        NUMBER_OF_FRAMES: 68291
        NUMBER_OF_BYTES : 35237111
        _STATISTICS_WRITING_APP: mkvpropedit v66.0.0 ('Josie') 64-bit
        _STATISTICS_WRITING_DATE_UTC: 2025-06-03 09:48:20
        encoder         : Lavc61.19.100 pcm_s16le
frame=  184 fps=0.0 q=-0.0 size=N/A time=00:00:07.67 bitrate=N/A speed=14.9x    frame=  440 fps=430 q=-0.0 size=N/A time=00:00:18.35 bitrate=N/A speed=17.9x    frame=  703 fps=455 q=-0.0 size=N/A time=00:00:29.32 bitrate=N/A speed=  19x    frame=  956 fps=466 q=-0.0 size=N/A time=00:00:39.87 bitrate=N/A speed=19.4x    frame= 1197 fps=465 q=-0.0 size=N/A time=00:00:49.92 bitrate=N/A speed=19.4x    frame= 1465 fps=475 q=-0.0 size=N/A time=00:01:01.10 bitrate=N/A speed=19.8x    frame= 1758 fps=487 q=-0.0 size=N/A time=00:01:13.32 bitrate=N/A speed=20.3x    frame= 2029 fps=493 q=-0.0 size=N/A time=00:01:24.62 bitrate=N/A speed=20.6x    frame= 2289 fps=494 q=-0.0 size=N/A time=00:01:35.47 bitrate=N/A speed=20.6x    frame= 2528 fps=490 q=-0.0 size=N/A time=00:01:45.43 bitrate=N/A speed=20.4x    frame= 2748 fps=483 q=-0.0 size=N/A time=00:01:54.61 bitrate=N/A speed=20.2x    frame= 2932 fps=473 q=-0.0 size=N/A time=00:02:02.28 bitrate=N/A speed=19.7x    frame= 3128 fps=466 q=-0.0 size=N/A time=00:02:10.46 bitrate=N/A speed=19.4x    frame= 3322 fps=460 q=-0.0 size=N/A time=00:02:18.55 bitrate=N/A speed=19.2x    frame= 3519 fps=454 q=-0.0 size=N/A time=00:02:26.77 bitrate=N/A speed=18.9x    frame= 3716 fps=450 q=-0.0 size=N/A time=00:02:34.98 bitrate=N/A speed=18.8x    frame= 3936 fps=448 q=-0.0 size=N/A time=00:02:44.16 bitrate=N/A speed=18.7x    frame= 4146 fps=447 q=-0.0 size=N/A time=00:02:52.92 bitrate=N/A speed=18.6x    frame= 4377 fps=446 q=-0.0 size=N/A time=00:03:02.55 bitrate=N/A speed=18.6x    frame= 4620 fps=447 q=-0.0 size=N/A time=00:03:12.69 bitrate=N/A speed=18.7x    frame= 4866 fps=449 q=-0.0 size=N/A time=00:03:22.95 bitrate=N/A speed=18.7x    frame= 5110 fps=450 q=-0.0 size=N/A time=00:03:33.12 bitrate=N/A speed=18.8x    frame= 5371 fps=452 q=-0.0 size=N/A time=00:03:44.01 bitrate=N/A speed=18.9x    frame= 5617 fps=453 q=-0.0 size=N/A time=00:03:54.27 bitrate=N/A speed=18.9x    frame= 5840 fps=453 q=-0.0 size=N/A time=00:04:03.57 bitrate=N/A speed=18.9x    frame= 6097 fps=455 q=-0.0 size=N/A time=00:04:14.29 bitrate=N/A speed=  19x    frame= 6379 fps=458 q=-0.0 size=N/A time=00:04:26.05 bitrate=N/A speed=19.1x    frame= 6650 fps=461 q=-0.0 size=N/A time=00:04:37.36 bitrate=N/A speed=19.2x    frame= 6928 fps=463 q=-0.0 size=N/A time=00:04:48.95 bitrate=N/A speed=19.3x    frame= 7180 fps=464 q=-0.0 size=N/A time=00:04:59.46 bitrate=N/A speed=19.4x    frame= 7409 fps=463 q=-0.0 size=N/A time=00:05:09.01 bitrate=N/A speed=19.3x    frame= 7639 fps=463 q=-0.0 size=N/A time=00:05:18.60 bitrate=N/A speed=19.3x    frame= 7873 fps=462 q=-0.0 size=N/A time=00:05:28.36 bitrate=N/A speed=19.3x    frame= 8094 fps=462 q=-0.0 size=N/A time=00:05:37.58 bitrate=N/A speed=19.3x    frame= 8350 fps=462 q=-0.0 size=N/A time=00:05:48.26 bitrate=N/A speed=19.3x    frame= 8568 fps=461 q=-0.0 size=N/A time=00:05:57.35 bitrate=N/A speed=19.2x    frame= 8824 fps=462 q=-0.0 size=N/A time=00:06:08.03 bitrate=N/A speed=19.3x    frame= 9065 fps=462 q=-0.0 size=N/A time=00:06:18.08 bitrate=N/A speed=19.3x    frame= 9297 fps=462 q=-0.0 size=N/A time=00:06:27.76 bitrate=N/A speed=19.3x    frame= 9566 fps=463 q=-0.0 size=N/A time=00:06:38.98 bitrate=N/A speed=19.3x    frame= 9763 fps=462 q=-0.0 size=N/A time=00:06:47.19 bitrate=N/A speed=19.3x    frame= 9991 fps=461 q=-0.0 size=N/A time=00:06:56.70 bitrate=N/A speed=19.2x    frame=10218 fps=461 q=-0.0 size=N/A time=00:07:06.17 bitrate=N/A speed=19.2x    frame=10467 fps=461 q=-0.0 size=N/A time=00:07:16.56 bitrate=N/A speed=19.2x    frame=10712 fps=461 q=-0.0 size=N/A time=00:07:26.77 bitrate=N/A speed=19.2x    frame=11001 fps=463 q=-0.0 size=N/A time=00:07:38.83 bitrate=N/A speed=19.3x    frame=11239 fps=464 q=-0.0 size=N/A time=00:07:48.75 bitrate=N/A speed=19.3x    frame=11428 fps=462 q=-0.0 size=N/A time=00:07:56.64 bitrate=N/A speed=19.3x    frame=11702 fps=463 q=-0.0 size=N/A time=00:08:08.07 bitrate=N/A speed=19.3x    frame=11965 fps=464 q=-0.0 size=N/A time=00:08:19.04 bitrate=N/A speed=19.4x    frame=12209 fps=464 q=-0.0 size=N/A time=00:08:29.21 bitrate=N/A speed=19.4x    frame=12485 fps=465 q=-0.0 size=N/A time=00:08:40.72 bitrate=N/A speed=19.4x    frame=12756 fps=467 q=-0.0 size=N/A time=00:08:52.03 bitrate=N/A speed=19.5x    frame=13015 fps=467 q=-0.0 size=N/A time=00:09:02.83 bitrate=N/A speed=19.5x    frame=13279 fps=468 q=-0.0 size=N/A time=00:09:13.84 bitrate=N/A speed=19.5x    frame=13565 fps=470 q=-0.0 size=N/A time=00:09:25.77 bitrate=N/A speed=19.6x    frame=13841 fps=471 q=-0.0 size=N/A time=00:09:37.28 bitrate=N/A speed=19.6x    frame=14125 fps=472 q=-0.0 size=N/A time=00:09:49.13 bitrate=N/A speed=19.7x    frame=14394 fps=473 q=-0.0 size=N/A time=00:10:00.34 bitrate=N/A speed=19.7x    frame=14648 fps=473 q=-0.0 size=N/A time=00:10:10.94 bitrate=N/A speed=19.7x    frame=14882 fps=473 q=-0.0 size=N/A time=00:10:20.70 bitrate=N/A speed=19.7x    frame=15118 fps=473 q=-0.0 size=N/A time=00:10:30.54 bitrate=N/A speed=19.7x    frame=15394 fps=474 q=-0.0 size=N/A time=00:10:42.05 bitrate=N/A speed=19.8x    frame=15667 fps=475 q=-0.0 size=N/A time=00:10:53.44 bitrate=N/A speed=19.8x    frame=15922 fps=475 q=-0.0 size=N/A time=00:11:04.08 bitrate=N/A speed=19.8x    frame=16203 fps=476 q=-0.0 size=N/A time=00:11:15.80 bitrate=N/A speed=19.9x    frame=16493 fps=477 q=-0.0 size=N/A time=00:11:27.89 bitrate=N/A speed=19.9x    frame=16730 fps=477 q=-0.0 size=N/A time=00:11:37.78 bitrate=N/A speed=19.9x    frame=16943 fps=476 q=-0.0 size=N/A time=00:11:46.66 bitrate=N/A speed=19.9x    frame=17149 fps=475 q=-0.0 size=N/A time=00:11:55.25 bitrate=N/A speed=19.8x    frame=17400 fps=475 q=-0.0 size=N/A time=00:12:05.72 bitrate=N/A speed=19.8x    frame=17645 fps=475 q=-0.0 size=N/A time=00:12:15.94 bitrate=N/A speed=19.8x    frame=17922 fps=476 q=-0.0 size=N/A time=00:12:27.49 bitrate=N/A speed=19.9x    frame=18137 fps=475 q=-0.0 size=N/A time=00:12:36.46 bitrate=N/A speed=19.8x    frame=18368 fps=475 q=-0.0 size=N/A time=00:12:46.09 bitrate=N/A speed=19.8x    frame=18632 fps=475 q=-0.0 size=N/A time=00:12:57.10 bitrate=N/A speed=19.8x    frame=18856 fps=475 q=-0.0 size=N/A time=00:13:06.45 bitrate=N/A speed=19.8x    frame=19122 fps=475 q=-0.0 size=N/A time=00:13:17.54 bitrate=N/A speed=19.8x    frame=19380 fps=476 q=-0.0 size=N/A time=00:13:28.30 bitrate=N/A speed=19.8x    frame=19636 fps=476 q=-0.0 size=N/A time=00:13:38.98 bitrate=N/A speed=19.8x    frame=19872 fps=476 q=-0.0 size=N/A time=00:13:48.82 bitrate=N/A speed=19.8x    frame=20071 fps=475 q=-0.0 size=N/A time=00:13:57.12 bitrate=N/A speed=19.8x    frame=20301 fps=474 q=-0.0 size=N/A time=00:14:06.72 bitrate=N/A speed=19.8x    frame=20556 fps=474 q=-0.0 size=N/A time=00:14:17.35 bitrate=N/A speed=19.8x    frame=20841 fps=475 q=-0.0 size=N/A time=00:14:29.24 bitrate=N/A speed=19.8x    frame=21112 fps=476 q=-0.0 size=N/A time=00:14:40.54 bitrate=N/A speed=19.9x    frame=21383 fps=476 q=-0.0 size=N/A time=00:14:51.84 bitrate=N/A speed=19.9x    frame=21667 fps=477 q=-0.0 size=N/A time=00:15:03.69 bitrate=N/A speed=19.9x    frame=21922 fps=477 q=-0.0 size=N/A time=00:15:14.33 bitrate=N/A speed=19.9x    frame=22199 fps=478 q=-0.0 size=N/A time=00:15:25.88 bitrate=N/A speed=19.9x    frame=22457 fps=478 q=-0.0 size=N/A time=00:15:36.64 bitrate=N/A speed=  20x    frame=22717 fps=479 q=-0.0 size=N/A time=00:15:47.48 bitrate=N/A speed=  20x    frame=22961 fps=479 q=-0.0 size=N/A time=00:15:57.66 bitrate=N/A speed=  20x    frame=23228 fps=479 q=-0.0 size=N/A time=00:16:08.80 bitrate=N/A speed=  20x    frame=23495 fps=479 q=-0.0 size=N/A time=00:16:19.93 bitrate=N/A speed=  20x    frame=23767 fps=480 q=-0.0 size=N/A time=00:16:31.28 bitrate=N/A speed=  20x    frame=24048 fps=481 q=-0.0 size=N/A time=00:16:43.00 bitrate=N/A speed=  20x    frame=24324 fps=481 q=-0.0 size=N/A time=00:16:54.51 bitrate=N/A speed=20.1x    frame=24615 fps=482 q=-0.0 size=N/A time=00:17:06.65 bitrate=N/A speed=20.1x    frame=24888 fps=482 q=-0.0 size=N/A time=00:17:18.03 bitrate=N/A speed=20.1x    frame=25175 fps=483 q=-0.0 size=N/A time=00:17:30.00 bitrate=N/A speed=20.2x    frame=25437 fps=483 q=-0.0 size=N/A time=00:17:40.93 bitrate=N/A speed=20.2x    frame=25669 fps=483 q=-0.0 size=N/A time=00:17:50.61 bitrate=N/A speed=20.1x    frame=25940 fps=484 q=-0.0 size=N/A time=00:18:01.91 bitrate=N/A speed=20.2x    frame=26185 fps=483 q=-0.0 size=N/A time=00:18:12.13 bitrate=N/A speed=20.2x    frame=26415 fps=483 q=-0.0 size=N/A time=00:18:21.72 bitrate=N/A speed=20.1x    frame=26663 fps=483 q=-0.0 size=N/A time=00:18:32.06 bitrate=N/A speed=20.1x    frame=26877 fps=482 q=-0.0 size=N/A time=00:18:40.99 bitrate=N/A speed=20.1x    frame=27100 fps=482 q=-0.0 size=N/A time=00:18:50.29 bitrate=N/A speed=20.1x    frame=27324 fps=482 q=-0.0 size=N/A time=00:18:59.63 bitrate=N/A speed=20.1x    frame=27528 fps=481 q=-0.0 size=N/A time=00:19:08.14 bitrate=N/A speed=20.1x    frame=27735 fps=480 q=-0.0 size=N/A time=00:19:16.78 bitrate=N/A speed=  20x    frame=27971 fps=480 q=-0.0 size=N/A time=00:19:26.62 bitrate=N/A speed=  20x    frame=28197 fps=479 q=-0.0 size=N/A time=00:19:36.04 bitrate=N/A speed=  20x    frame=28455 fps=480 q=-0.0 size=N/A time=00:19:46.81 bitrate=N/A speed=  20x    frame=28674 fps=479 q=-0.0 size=N/A time=00:19:55.94 bitrate=N/A speed=  20x    frame=28923 fps=479 q=-0.0 size=N/A time=00:20:06.33 bitrate=N/A speed=  20x    frame=29147 fps=479 q=-0.0 size=N/A time=00:20:15.67 bitrate=N/A speed=  20x    frame=29411 fps=479 q=-0.0 size=N/A time=00:20:26.68 bitrate=N/A speed=  20x    frame=29678 fps=479 q=-0.0 size=N/A time=00:20:37.81 bitrate=N/A speed=  20x    frame=29960 fps=480 q=-0.0 size=N/A time=00:20:49.58 bitrate=N/A speed=  20x    frame=30222 fps=480 q=-0.0 size=N/A time=00:21:00.50 bitrate=N/A speed=  20x    frame=30468 fps=480 q=-0.0 size=N/A time=00:21:10.76 bitrate=N/A speed=  20x    frame=30729 fps=480 q=-0.0 size=N/A time=00:21:21.65 bitrate=N/A speed=  20x    frame=31021 fps=481 q=-0.0 size=N/A time=00:21:33.83 bitrate=N/A speed=20.1x    frame=31288 fps=481 q=-0.0 size=N/A time=00:21:44.97 bitrate=N/A speed=20.1x    frame=31515 fps=481 q=-0.0 size=N/A time=00:21:54.43 bitrate=N/A speed=20.1x    frame=31789 fps=481 q=-0.0 size=N/A time=00:22:05.86 bitrate=N/A speed=20.1x    frame=32058 fps=482 q=-0.0 size=N/A time=00:22:17.08 bitrate=N/A speed=20.1x    frame=32322 fps=482 q=-0.0 size=N/A time=00:22:28.09 bitrate=N/A speed=20.1x    frame=32560 fps=482 q=-0.0 size=N/A time=00:22:38.02 bitrate=N/A speed=20.1x    frame=32780 fps=481 q=-0.0 size=N/A time=00:22:47.19 bitrate=N/A speed=20.1x    frame=33017 fps=481 q=-0.0 size=N/A time=00:22:57.08 bitrate=N/A speed=20.1x    frame=33254 fps=481 q=-0.0 size=N/A time=00:23:06.96 bitrate=N/A speed=20.1x    frame=33477 fps=481 q=-0.0 size=N/A time=00:23:16.26 bitrate=N/A speed=  20x    frame=33687 fps=480 q=-0.0 size=N/A time=00:23:25.02 bitrate=N/A speed=  20x    frame=33903 fps=480 q=-0.0 size=N/A time=00:23:34.03 bitrate=N/A speed=  20x    frame=34087 fps=479 q=-0.0 size=N/A time=00:23:41.71 bitrate=N/A speed=  20x    frame=34238 fps=477 q=-0.0 size=N/A time=00:23:48.00 bitrate=N/A speed=19.9x    frame=34414 fps=476 q=-0.0 size=N/A time=00:23:55.35 bitrate=N/A speed=19.9x    frame=34658 fps=476 q=-0.0 size=N/A time=00:24:05.52 bitrate=N/A speed=19.9x    frame=34909 fps=477 q=-0.0 size=N/A time=00:24:15.99 bitrate=N/A speed=19.9x    [Parsed_ssim_10 @ 000002acb0e5bf80] SSIM Y:0.994522 (22.613420) U:0.992802 (21.427868) V:0.993054 (21.582851) All:0.993990 (22.211554)
[out#0/null @ 000002acb0595b80] video:15006KiB audio:273164KiB subtitle:0KiB other streams:0KiB global headers:0KiB muxing overhead: unknown
frame=34923 fps=477 q=-0.0 Lsize=N/A time=00:24:16.58 bitrate=N/A speed=19.9x    
